<svg width="24" height="25" viewBox="0 0 24 25" fill="none" xmlns="http://www.w3.org/2000/svg">
<path d="M19.5 20.6C19.025 11.267 4.975 11.267 4.5 20.6M15 7.60001C15 8.39566 14.6839 9.15872 14.1213 9.72133C13.5587 10.2839 12.7956 10.6 12 10.6C11.2044 10.6 10.4413 10.2839 9.87868 9.72133C9.31607 9.15872 9 8.39566 9 7.60001C9 6.80436 9.31607 6.04129 9.87868 5.47869C10.4413 4.91608 11.2044 4.60001 12 4.60001C12.7956 4.60001 13.5587 4.91608 14.1213 5.47869C14.6839 6.04129 15 6.80436 15 7.60001Z" stroke="#F6F6F6" stroke-width="1.1" stroke-linecap="round" stroke-linejoin="round"/>
</svg>
