<svg width="48" height="48" viewBox="0 0 48 48" fill="none" xmlns="http://www.w3.org/2000/svg">
<path d="M33.5 14H14.5C8.97715 14 4.5 18.4772 4.5 24C4.5 29.5228 8.97715 34 14.5 34H33.5C39.0228 34 43.5 29.5228 43.5 24C43.5 18.4772 39.0228 14 33.5 14Z" stroke="#F6F6F6" stroke-width="1.3" stroke-linecap="round" stroke-linejoin="round"/>
<path d="M16.6601 22.43H15.3701V21.14C15.3701 20.7236 15.2047 20.3243 14.9103 20.0299C14.6158 19.7354 14.2165 19.57 13.8001 19.57C13.3837 19.57 12.9844 19.7354 12.69 20.0299C12.3955 20.3243 12.2301 20.7236 12.2301 21.14V22.43H10.9401C10.7339 22.43 10.5298 22.4706 10.3393 22.5495C10.1488 22.6284 9.97575 22.7441 9.82996 22.8899C9.68417 23.0356 9.56853 23.2087 9.48963 23.3992C9.41073 23.5897 9.37012 23.7938 9.37012 24C9.37012 24.2062 9.41073 24.4103 9.48963 24.6008C9.56853 24.7913 9.68417 24.9644 9.82996 25.1102C9.97575 25.256 10.1488 25.3716 10.3393 25.4505C10.5298 25.5294 10.7339 25.57 10.9401 25.57H12.2301V26.86C12.2301 27.2764 12.3955 27.6757 12.69 27.9702C12.9844 28.2646 13.3837 28.43 13.8001 28.43C14.2165 28.43 14.6158 28.2646 14.9103 27.9702C15.2047 27.6757 15.3701 27.2764 15.3701 26.86V25.57H16.6601C17.0765 25.57 17.4758 25.4046 17.7703 25.1102C18.0647 24.8157 18.2301 24.4164 18.2301 24C18.2301 23.5836 18.0647 23.1843 17.7703 22.8899C17.4758 22.5954 17.0765 22.43 16.6601 22.43Z" stroke="#F6F6F6" stroke-width="1.3" stroke-linecap="round" stroke-linejoin="round"/>
<path d="M32.61 26.64C32.61 25.309 31.531 24.23 30.2 24.23C28.869 24.23 27.79 25.309 27.79 26.64C27.79 27.971 28.869 29.05 30.2 29.05C31.531 29.05 32.61 27.971 32.61 26.64Z" stroke="#F6F6F6" stroke-width="1.3" stroke-linecap="round" stroke-linejoin="round"/>
<path d="M37.8898 21.36C37.8898 20.029 36.8108 18.95 35.4798 18.95C34.1488 18.95 33.0698 20.029 33.0698 21.36C33.0698 22.691 34.1488 23.77 35.4798 23.77C36.8108 23.77 37.8898 22.691 37.8898 21.36Z" stroke="#F6F6F6" stroke-width="1.3" stroke-linecap="round" stroke-linejoin="round"/>
</svg>
