<svg width="25" height="25" viewBox="0 0 25 25" fill="none" xmlns="http://www.w3.org/2000/svg">
<path d="M17.4167 7.89996H7.91669C5.15526 7.89996 2.91669 10.1385 2.91669 12.9C2.91669 15.6614 5.15526 17.9 7.91669 17.9H17.4167C20.1781 17.9 22.4167 15.6614 22.4167 12.9C22.4167 10.1385 20.1781 7.89996 17.4167 7.89996Z" stroke="#F6F6F6" stroke-width="1.3" stroke-linecap="round" stroke-linejoin="round"/>
<path d="M8.99668 12.1149H8.35168V11.4699C8.35168 11.2617 8.26898 11.0621 8.12176 10.9149C7.97455 10.7676 7.77488 10.6849 7.56668 10.6849C7.35849 10.6849 7.15882 10.7676 7.01161 10.9149C6.86439 11.0621 6.78168 11.2617 6.78168 11.4699V12.1149H6.13668C6.0336 12.1149 5.93152 12.1352 5.83628 12.1747C5.74104 12.2141 5.6545 12.272 5.58161 12.3449C5.50871 12.4178 5.45089 12.5043 5.41144 12.5995C5.37199 12.6948 5.35168 12.7968 5.35168 12.8999C5.35168 13.003 5.37199 13.1051 5.41144 13.2003C5.45089 13.2956 5.50871 13.3821 5.58161 13.455C5.6545 13.5279 5.74104 13.5857 5.83628 13.6252C5.93152 13.6646 6.0336 13.6849 6.13668 13.6849H6.78168V14.3299C6.78168 14.5381 6.86439 14.7378 7.01161 14.885C7.15882 15.0322 7.35849 15.1149 7.56668 15.1149C7.77488 15.1149 7.97455 15.0322 8.12176 14.885C8.26898 14.7378 8.35168 14.5381 8.35168 14.3299V13.6849H8.99668C9.20488 13.6849 9.40455 13.6022 9.55176 13.455C9.69898 13.3078 9.78168 13.1081 9.78168 12.8999C9.78168 12.6917 9.69898 12.4921 9.55176 12.3449C9.40455 12.1976 9.20488 12.1149 8.99668 12.1149Z" stroke="#F6F6F6" stroke-width="1.3" stroke-linecap="round" stroke-linejoin="round"/>
<path d="M16.9717 14.22C16.9717 13.5545 16.4322 13.015 15.7667 13.015C15.1012 13.015 14.5617 13.5545 14.5617 14.22C14.5617 14.8855 15.1012 15.425 15.7667 15.425C16.4322 15.425 16.9717 14.8855 16.9717 14.22Z" stroke="#F6F6F6" stroke-width="1.3" stroke-linecap="round" stroke-linejoin="round"/>
<path d="M19.6117 11.5799C19.6117 10.9144 19.0722 10.3749 18.4067 10.3749C17.7412 10.3749 17.2017 10.9144 17.2017 11.5799C17.2017 12.2454 17.7412 12.7849 18.4067 12.7849C19.0722 12.7849 19.6117 12.2454 19.6117 11.5799Z" stroke="#F6F6F6" stroke-width="1.3" stroke-linecap="round" stroke-linejoin="round"/>
</svg>
