<svg width="49" height="49" viewBox="0 0 49 49" fill="none" xmlns="http://www.w3.org/2000/svg">
<path d="M35.0868 0.200012H13.5793C6.27546 0.200012 0.333313 6.14245 0.333313 13.4463V34.9537C0.333313 42.2579 6.27546 48.2 13.5793 48.2H35.0868C42.3912 48.2 48.3333 42.2576 48.3333 34.9537V13.4463C48.3336 6.14245 42.3912 0.200012 35.0868 0.200012ZM44.0748 34.9537C44.0748 39.9096 40.0429 43.9412 35.087 43.9412H13.5793C8.62376 43.9415 4.59211 39.9096 4.59211 34.9537V13.4463C4.59211 8.49075 8.62376 4.45881 13.5793 4.45881H35.0868C40.0426 4.45881 44.0745 8.49075 44.0745 13.4463V34.9537H44.0748Z" fill="#1AB8F2"/>
<path d="M24.3333 11.8322C17.5133 11.8322 11.9649 17.3805 11.9649 24.2006C11.9649 31.0203 17.5133 36.5684 24.3333 36.5684C31.1533 36.5684 36.7017 31.0203 36.7017 24.2006C36.7017 17.3805 31.1533 11.8322 24.3333 11.8322ZM24.3333 32.3093C19.8618 32.3093 16.2237 28.6717 16.2237 24.2003C16.2237 19.7286 19.8616 16.0907 24.3333 16.0907C28.805 16.0907 32.4429 19.7286 32.4429 24.2003C32.4429 28.6717 28.8047 32.3093 24.3333 32.3093Z" fill="#1AB8F2"/>
<path d="M37.2204 8.22101C36.3999 8.22101 35.5938 8.55319 35.0144 9.13523C34.432 9.71443 34.0973 10.5208 34.0973 11.3441C34.0973 12.1649 34.4323 12.971 35.0144 13.553C35.5935 14.1322 36.3999 14.4672 37.2204 14.4672C38.0438 14.4672 38.8473 14.1322 39.4293 13.553C40.0113 12.971 40.3435 12.1647 40.3435 11.3441C40.3435 10.5208 40.0113 9.71443 39.4293 9.13523C38.8501 8.55319 38.0438 8.22101 37.2204 8.22101Z" fill="#1AB8F2"/>
</svg>
