<svg width="250" height="48" viewBox="0 0 250 48" fill="none" xmlns="http://www.w3.org/2000/svg">
<path d="M35.5291 11C40.4641 13.368 41.6731 22.534 40.4641 28.074C39.5581 24.145 37.6441 22.684 37.6441 22.684C38.4501 29.786 36.7881 33.261 31.6001 37.794C32.2551 35.578 31.6001 34.357 31.6001 34.357" stroke="#1AB8F2" stroke-linecap="round" stroke-linejoin="round"/>
<path d="M33.565 20.368C35.176 29.03 32.809 35.578 24.852 41.42C31.6 29.601 27.522 26.91 29.447 19.764M38.84 14.387C40.46 9.195 39.283 6.116 34.672 5.562C31.925 5.232 29.447 6.216 26.312 8.785C24.497 10.273 19.463 9.993 19.463 9.993C16.089 7.273 9.94498 6.77 11.506 13.973M20.336 19.252C19.354 19.655 14.595 17.992 11.749 20.461M27.74 16.96C25.7 18.975 25.07 22.248 25.07 22.248" stroke="#1AB8F2" stroke-linecap="round" stroke-linejoin="round"/>
<path d="M29.1 16.96C25.64 15.66 20.537 19.168 20.537 19.168M16.618 24.934C14.654 23.793 12.824 22.668 12.824 22.668C10.574 23.575 8.84497 23.81 8.84497 23.81" stroke="#1AB8F2" stroke-linecap="round" stroke-linejoin="round"/>
<path d="M14.0159 11.404C12.3709 14.425 8.74494 14.896 8.60994 16.557C8.47494 18.218 10.3559 19.932 10.3899 20.637C10.4239 21.342 7.97194 23.692 8.10694 25.807C8.24194 27.922 10.6249 31.851 10.6249 31.851C10.6249 31.851 11.9679 31.188 12.2699 30.432C12.6979 33.051 15.8199 36.828 15.8199 36.828C15.0399 38.968 14.8129 42.67 18.4139 42.494C22.0149 42.318 27.7689 34.793 27.7689 34.793" stroke="#1AB8F2" stroke-linecap="round" stroke-linejoin="round"/>
<path d="M29.25 12.73C21.864 11.186 20 17.716 16.324 19.074M36.872 9.94301C34.79 9.40601 31.5 9.44001 33.883 13.636" stroke="#1AB8F2" stroke-linecap="round" stroke-linejoin="round"/>
<path d="M23.18 9.84399C18.177 11.039 7.42704 18.438 18.292 17.814M15.549 24.308C13.571 26.328 10.761 26.143 9.44604 23.701M9.57504 29.942C9.77704 28.242 11.993 26.798 13.672 28.678C15.753 28.913 21.058 27.335 21.058 27.335C21.058 27.335 22.737 33.445 23.878 35.292M24.852 34.52C22.233 37.004 23.299 39.205 22.498 40.37M25.725 24.129C26.229 27.167 25.393 30.592 25.393 30.592" stroke="#1AB8F2" stroke-linecap="round" stroke-linejoin="round"/>
<path d="M28.396 33.131C28.546 29.484 27.369 22.584 20.536 19.168M23.18 33.836C22.216 37.356 20.739 39.17 19.749 36.232C19.749 36.232 19.178 37.575 18.204 37.508C14.354 37.242 19.514 31.263 21.792 29.831" stroke="#1AB8F2" stroke-linecap="round" stroke-linejoin="round"/>
<path d="M15.345 39.338C17.298 38.683 20.319 39.506 20.319 39.506L21.239 37.617M12.27 30.432L17.784 30.239L19.148 32.223" stroke="#1AB8F2" stroke-linecap="round" stroke-linejoin="round"/>
<path d="M17.5679 34.32C16.0379 33.244 14.6599 30.348 14.6599 30.348" stroke="#1AB8F2" stroke-linecap="round" stroke-linejoin="round"/>
<path d="M64.4501 20.432C64.4501 21.328 64.2341 22.168 63.8021 22.952C63.3861 23.736 62.7221 24.368 61.8101 24.848C60.9141 25.328 59.7781 25.568 58.4021 25.568H55.5941V32H52.2341V15.248H58.4021C59.6981 15.248 60.8021 15.472 61.7141 15.92C62.6261 16.368 63.3061 16.984 63.7541 17.768C64.2181 18.552 64.4501 19.44 64.4501 20.432ZM58.2581 22.856C59.1861 22.856 59.8741 22.648 60.3221 22.232C60.7701 21.8 60.9941 21.2 60.9941 20.432C60.9941 18.8 60.0821 17.984 58.2581 17.984H55.5941V22.856H58.2581ZM70.1957 17.96V22.16H75.8357V24.824H70.1957V29.264H76.5557V32H66.8357V15.224H76.5557V17.96H70.1957ZM91.0091 15.248V17.96H86.5451V32H83.1851V17.96H78.7211V15.248H91.0091ZM102.101 32L98.4047 25.472H96.8207V32H93.4607V15.248H99.7487C101.045 15.248 102.149 15.48 103.061 15.944C103.973 16.392 104.653 17.008 105.101 17.792C105.565 18.56 105.797 19.424 105.797 20.384C105.797 21.488 105.477 22.488 104.837 23.384C104.197 24.264 103.245 24.872 101.981 25.208L105.989 32H102.101ZM96.8207 22.952H99.6287C100.541 22.952 101.221 22.736 101.669 22.304C102.117 21.856 102.341 21.24 102.341 20.456C102.341 19.688 102.117 19.096 101.669 18.68C101.221 18.248 100.541 18.032 99.6287 18.032H96.8207V22.952ZM116.612 32.168C115.044 32.168 113.604 31.8 112.292 31.064C110.98 30.328 109.94 29.312 109.172 28.016C108.404 26.704 108.02 25.224 108.02 23.576C108.02 21.944 108.404 20.48 109.172 19.184C109.94 17.872 110.98 16.848 112.292 16.112C113.604 15.376 115.044 15.008 116.612 15.008C118.196 15.008 119.636 15.376 120.932 16.112C122.244 16.848 123.276 17.872 124.028 19.184C124.796 20.48 125.18 21.944 125.18 23.576C125.18 25.224 124.796 26.704 124.028 28.016C123.276 29.312 122.244 30.328 120.932 31.064C119.62 31.8 118.18 32.168 116.612 32.168ZM116.612 29.168C117.62 29.168 118.508 28.944 119.276 28.496C120.044 28.032 120.644 27.376 121.076 26.528C121.508 25.68 121.724 24.696 121.724 23.576C121.724 22.456 121.508 21.48 121.076 20.648C120.644 19.8 120.044 19.152 119.276 18.704C118.508 18.256 117.62 18.032 116.612 18.032C115.604 18.032 114.708 18.256 113.924 18.704C113.156 19.152 112.556 19.8 112.124 20.648C111.692 21.48 111.476 22.456 111.476 23.576C111.476 24.696 111.692 25.68 112.124 26.528C112.556 27.376 113.156 28.032 113.924 28.496C114.708 28.944 115.604 29.168 116.612 29.168ZM137.135 32L131.039 24.536V32H127.679V15.248H131.039V22.76L137.135 15.248H141.191L134.279 23.552L141.383 32H137.135ZM153.866 28.808H147.194L146.09 32H142.562L148.586 15.224H152.498L158.522 32H154.97L153.866 28.808ZM152.954 26.12L150.53 19.112L148.105 26.12H152.954ZM178.156 20.288C177.772 19.584 177.244 19.048 176.572 18.68C175.9 18.312 175.116 18.128 174.22 18.128C173.228 18.128 172.348 18.352 171.58 18.8C170.812 19.248 170.212 19.888 169.78 20.72C169.348 21.552 169.132 22.512 169.132 23.6C169.132 24.72 169.348 25.696 169.78 26.528C170.228 27.36 170.844 28 171.628 28.448C172.412 28.896 173.324 29.12 174.364 29.12C175.644 29.12 176.692 28.784 177.508 28.112C178.324 27.424 178.86 26.472 179.116 25.256H173.356V22.688H182.428V25.616C182.204 26.784 181.724 27.864 180.988 28.856C180.252 29.848 179.3 30.648 178.132 31.256C176.98 31.848 175.684 32.144 174.244 32.144C172.628 32.144 171.164 31.784 169.852 31.064C168.556 30.328 167.532 29.312 166.78 28.016C166.044 26.72 165.676 25.248 165.676 23.6C165.676 21.952 166.044 20.48 166.78 19.184C167.532 17.872 168.556 16.856 169.852 16.136C171.164 15.4 172.62 15.032 174.22 15.032C176.108 15.032 177.748 15.496 179.14 16.424C180.532 17.336 181.492 18.624 182.02 20.288H178.156ZM195.186 28.808H188.514L187.41 32H183.882L189.906 15.224H193.818L199.842 32H196.29L195.186 28.808ZM194.274 26.12L191.85 19.112L189.426 26.12H194.274ZM220.358 15.248V32H216.998V21.104L212.51 32H209.966L205.454 21.104V32H202.094V15.248H205.91L211.238 27.704L216.566 15.248H220.358ZM227.039 17.96V22.16H232.679V24.824H227.039V29.264H233.399V32H223.679V15.224H233.399V17.96H227.039ZM242.237 32.168C241.069 32.168 240.013 31.968 239.069 31.568C238.141 31.168 237.405 30.592 236.861 29.84C236.317 29.088 236.037 28.2 236.021 27.176H239.621C239.669 27.864 239.909 28.408 240.341 28.808C240.789 29.208 241.397 29.408 242.165 29.408C242.949 29.408 243.565 29.224 244.013 28.856C244.461 28.472 244.685 27.976 244.685 27.368C244.685 26.872 244.533 26.464 244.229 26.144C243.925 25.824 243.541 25.576 243.077 25.4C242.629 25.208 242.005 25 241.205 24.776C240.117 24.456 239.229 24.144 238.541 23.84C237.869 23.52 237.285 23.048 236.789 22.424C236.309 21.784 236.069 20.936 236.069 19.88C236.069 18.888 236.317 18.024 236.813 17.288C237.309 16.552 238.005 15.992 238.901 15.608C239.797 15.208 240.821 15.008 241.973 15.008C243.701 15.008 245.101 15.432 246.173 16.28C247.261 17.112 247.861 18.28 247.973 19.784H244.277C244.245 19.208 243.997 18.736 243.533 18.368C243.085 17.984 242.485 17.792 241.733 17.792C241.077 17.792 240.549 17.96 240.149 18.296C239.765 18.632 239.573 19.12 239.573 19.76C239.573 20.208 239.717 20.584 240.005 20.888C240.309 21.176 240.677 21.416 241.109 21.608C241.557 21.784 242.181 21.992 242.981 22.232C244.069 22.552 244.957 22.872 245.645 23.192C246.333 23.512 246.925 23.992 247.421 24.632C247.917 25.272 248.165 26.112 248.165 27.152C248.165 28.048 247.933 28.88 247.469 29.648C247.005 30.416 246.325 31.032 245.429 31.496C244.533 31.944 243.469 32.168 242.237 32.168Z" fill="#1AB8F2"/>
</svg>
