<svg width="49" height="49" viewBox="0 0 49 49" fill="none" xmlns="http://www.w3.org/2000/svg">
<path fill-rule="evenodd" clip-rule="evenodd" d="M24.3333 8.29999C26.0433 8.29999 27.7973 8.34399 29.4973 8.41599L31.5053 8.51199L33.4273 8.62599L35.2273 8.74799L36.8713 8.87599C38.6557 9.01177 40.3349 9.77286 41.6132 11.0252C42.8915 12.2775 43.6869 13.9408 43.8593 15.722L43.9393 16.572L44.0893 18.392C44.2293 20.278 44.3333 22.334 44.3333 24.3C44.3333 26.266 44.2293 28.322 44.0893 30.208L43.9393 32.028L43.8593 32.878C43.6869 34.6595 42.8912 36.323 41.6125 37.5754C40.3337 38.8278 38.654 39.5887 36.8693 39.724L35.2293 39.85L33.4293 39.974L31.5053 40.088L29.4973 40.184C27.777 40.2585 26.0553 40.2972 24.3333 40.3C22.6114 40.2972 20.8897 40.2585 19.1693 40.184L17.1613 40.088L15.2393 39.974L13.4393 39.85L11.7953 39.724C10.0109 39.5882 8.33171 38.8271 7.0534 37.5748C5.77509 36.3224 4.97969 34.6592 4.80731 32.878L4.72731 32.028L4.57731 30.208C4.42498 28.2422 4.34359 26.2716 4.33331 24.3C4.33331 22.334 4.43731 20.278 4.57731 18.392L4.72731 16.572L4.80731 15.722C4.97963 13.9411 5.77474 12.2781 7.05264 11.0258C8.33054 9.77351 10.0093 9.01222 11.7933 8.87599L13.4353 8.74799L15.2353 8.62599L17.1593 8.51199L19.1673 8.41599C20.8883 8.34144 22.6107 8.30277 24.3333 8.29999ZM20.3333 19.45V29.15C20.3333 30.074 21.3333 30.65 22.1333 30.19L30.5333 25.34C30.7161 25.2348 30.8679 25.0832 30.9735 24.9007C31.0791 24.7181 31.1346 24.5109 31.1346 24.3C31.1346 24.0891 31.0791 23.8819 30.9735 23.6993C30.8679 23.5167 30.7161 23.3652 30.5333 23.26L22.1333 18.412C21.9508 18.3066 21.7438 18.2512 21.5331 18.2512C21.3224 18.2513 21.1154 18.3068 20.933 18.4122C20.7505 18.5176 20.5991 18.6692 20.4938 18.8517C20.3885 19.0342 20.3332 19.2413 20.3333 19.452V19.45Z" fill="#1AB8F2"/>
</svg>
