<svg width="32" height="32" viewBox="0 0 48 49" fill="none" xmlns="http://www.w3.org/2000/svg">
<g clip-path="url(#clip0_12_2651)">
<path d="M36.3096 34.8301C33.5474 33.8415 28.6952 33.0935 28.6952 22.7887H24.37H23.6298H19.3046C19.3046 33.0935 14.4524 33.8415 11.6902 34.8301C11.6902 41.8392 21.8755 42.0547 23.6298 42.708V42.9354C23.6298 42.9354 23.7663 42.9076 23.9999 42.8348C24.2336 42.9076 24.37 42.9354 24.37 42.9354V42.708C26.1244 42.0548 36.3096 41.8392 36.3096 34.8301Z" fill="#F3D8B6"/>
<path d="M28.6952 22.7889H24.37H24.0123V42.8387C24.2381 42.9085 24.37 42.9355 24.37 42.9355V42.708C26.1243 42.0547 36.3096 41.8393 36.3096 34.8301C33.5474 33.8417 28.6952 33.0937 28.6952 22.7889Z" fill="#EEC8A2"/>
<path d="M24.0002 26.0683C19.9378 26.0683 16.837 22.6473 15.4475 20.0819C14.0581 17.5165 13.0966 8.32624 16.0897 4.26411C19.0208 0.286166 24.0002 2.21646 24.0002 2.21646C24.0002 2.21646 28.9793 0.286166 31.9105 4.26411C34.9034 8.32624 33.9416 17.5165 32.552 20.0819C31.1622 22.6473 28.0619 26.0683 24.0002 26.0683Z" fill="#F3DBC4"/>
<path d="M31.9106 4.26402C29.061 0.397064 24.2771 2.11295 24.0123 2.2118V26.0679C28.068 26.0611 31.1637 22.6446 32.5521 20.0818C33.9416 17.5164 34.9035 8.32631 31.9106 4.26402Z" fill="#EDCEAE"/>
<path d="M34.5896 16.5763C35.0873 15.2629 34.8682 13.9623 34.1003 13.6714C33.3325 13.3804 32.3066 14.2093 31.809 15.5227C31.3113 16.8361 31.5304 18.1367 32.2982 18.4277C33.0661 18.7186 34.092 17.8897 34.5896 16.5763Z" fill="#EDCEAE"/>
<path d="M13.4092 16.5759C13.9069 17.8893 14.9327 18.7182 15.7006 18.4272C16.4685 18.1363 16.6875 16.8357 16.1899 15.5223C15.6922 14.2089 14.6663 13.38 13.8985 13.6709C13.1306 13.9619 12.9116 15.2625 13.4092 16.5759Z" fill="#F3DBC4"/>
<path d="M30.2138 14.5592H26.1166C25.9413 14.5592 25.768 14.5952 25.6089 14.6647L23.9999 15.2378L22.3908 14.6647C22.2318 14.5952 22.0585 14.5592 21.8831 14.5592H17.7861C16.9709 14.5592 16.6895 15.9611 16.6895 15.9611C16.6895 17.8155 18.0495 19.3189 20.2047 19.3189C21.519 19.3189 22.7807 17.922 23.5561 16.7914H24.4439C25.2193 17.922 26.4812 19.3189 27.7954 19.3189C29.9506 19.3189 31.3106 17.8155 31.3106 15.9611C31.3106 15.9611 31.0292 14.5592 30.2138 14.5592Z" fill="#A7B8D4"/>
<path d="M30.2138 14.5592H26.1166C25.9413 14.5592 25.768 14.5952 25.6089 14.6647L24.0121 15.2334V16.7914H24.4438C25.2192 17.922 26.4811 19.3189 27.7952 19.3189C29.9504 19.3189 31.3104 17.8155 31.3104 15.9611C31.3104 15.9611 31.0291 14.5592 30.2138 14.5592Z" fill="#8AA4C2"/>
<path d="M32.3445 3.64937C32.0249 3.65218 28.5758 1.70782 26.2211 1.22928C23.4443 0.664912 23.4427 1.151 22.3709 1.4536C19.8798 -0.373706 13.7139 5.10127 13.7139 6.23237C13.7139 11.7239 13.3043 12.2544 13.9677 14.1705C14.6311 16.0866 15.2204 17.6341 15.2204 17.6341C15.2204 17.6341 15.6626 19.087 15.6626 16.0512C15.6626 7.788 16.0776 15.5224 30.4611 9.16503C33.2958 7.91215 31.8143 12.1186 32.1091 15.14C32.4039 18.1615 32.5512 17.6339 32.5512 17.6339C32.5512 17.6339 33.1408 16.0864 33.804 14.1703C34.4673 12.2544 35.2081 3.62421 32.3445 3.64937Z" fill="#A0756F"/>
<path d="M32.3445 3.64948C32.0249 3.65229 28.5758 1.70793 26.2211 1.22939C25.1389 1.00935 24.4791 0.949426 24.0122 0.975469V11.3936C25.7679 10.9859 27.8903 10.3014 30.461 9.16515C33.2957 7.91226 31.8142 12.1187 32.109 15.1401C32.4037 18.1616 32.5511 17.634 32.5511 17.634C32.5511 17.634 33.1406 16.0866 33.8038 14.1705C34.4673 12.2545 35.2081 3.62432 32.3445 3.64948Z" fill="#8C6762"/>
<path d="M32.4423 34.1038H15.5575V48.9491H32.4423V34.1038Z" fill="#B7CAE9"/>
<path d="M32.4425 34.1038H24.0123V48.9491H32.4425V34.1038Z" fill="#96B3D4"/>
<path d="M12.1759 32.4565C13.0699 31.9177 15.0894 31.3571 16.148 31.0957C17.0289 30.8756 16.6639 33.29 16.9891 36.3877C17.326 39.5953 19.8428 48.9693 19.8428 48.9693H6.1676V42.9496C6.1676 38.4467 8.73892 34.5207 12.1759 32.4565Z" fill="#2ED875"/>
<path d="M18.2148 29.6647C18.2148 29.6647 13.4128 30.9226 12.3426 32.4208C11.2725 33.9189 10.6304 35.9522 10.6304 35.9522L14.8038 37.4502L11.7131 40.4606L15.8786 48.9492H19.8429C19.8429 48.9492 16.8528 38.228 16.7843 34.4491C16.7618 33.211 18.2148 29.6647 18.2148 29.6647Z" fill="#37A464"/>
<path d="M35.8239 32.4565C34.9299 31.9177 32.9104 31.3571 31.8518 31.0957C30.9709 30.8756 31.3359 33.29 31.0107 36.3877C30.6738 39.5953 28.157 48.9693 28.157 48.9693H41.8324V42.9496C41.8324 38.4467 39.261 34.5207 35.8239 32.4565Z" fill="#2ED875"/>
<path d="M29.7852 29.6647C29.7852 29.6647 34.5872 30.9226 35.6573 32.4208C36.7275 33.9189 37.3695 35.9522 37.3695 35.9522L33.1961 37.4502L36.2868 40.4606L32.1214 48.9492H28.157C28.157 48.9492 31.1471 38.228 31.2155 34.4491C31.238 33.211 29.7852 29.6647 29.7852 29.6647Z" fill="#37A464"/>
<path d="M34.5896 16.5763C35.0873 15.2629 34.8682 13.9623 34.1003 13.6714C33.3325 13.3804 32.3066 14.2093 31.809 15.5227C31.3113 16.8361 31.5304 18.1367 32.2982 18.4277C33.0661 18.7186 34.092 17.8897 34.5896 16.5763Z" fill="#EDCEAE"/>
<path d="M13.4092 16.5759C13.9069 17.8893 14.9327 18.7182 15.7006 18.4272C16.4685 18.1363 16.6875 16.8357 16.1899 15.5223C15.6922 14.2089 14.6663 13.38 13.8985 13.6709C13.1306 13.9619 12.9116 15.2625 13.4092 16.5759Z" fill="#F3DBC4"/>
</g>
<rect x="1" y="1.60004" width="46" height="46" rx="23" stroke="#1383AC" stroke-width="2"/>
<defs>
<clipPath id="clip0_12_2651">
<rect y="0.600037" width="48" height="48" rx="24" fill="white"/>
</clipPath>
</defs>
</svg>
