<svg width="32" height="32" viewBox="0 0 49 49" fill="none" xmlns="http://www.w3.org/2000/svg">
<path d="M32.6667 36.2C33.7276 36.2 34.745 36.6214 35.4951 37.3716C36.2453 38.1217 36.6667 39.1391 36.6667 40.2C36.6667 41.2609 36.2453 42.2783 35.4951 43.0284C34.745 43.7786 33.7276 44.2 32.6667 44.2C31.6058 44.2 30.5884 43.7786 29.8383 43.0284C29.0881 42.2783 28.6667 41.2609 28.6667 40.2C28.6667 39.1391 29.0881 38.1217 29.8383 37.3716C30.5884 36.6214 31.6058 36.2 32.6667 36.2ZM32.6667 38.2C32.1363 38.2 31.6275 38.4107 31.2525 38.7858C30.8774 39.1609 30.6667 39.6696 30.6667 40.2C30.6667 40.7304 30.8774 41.2392 31.2525 41.6142C31.6275 41.9893 32.1363 42.2 32.6667 42.2C33.1971 42.2 33.7058 41.9893 34.0809 41.6142C34.456 41.2392 34.6667 40.7304 34.6667 40.2C34.6667 39.6696 34.456 39.1609 34.0809 38.7858C33.7058 38.4107 33.1971 38.2 32.6667 38.2ZM14.6667 36.2C15.7276 36.2 16.745 36.6214 17.4951 37.3716C18.2453 38.1217 18.6667 39.1391 18.6667 40.2C18.6667 41.2609 18.2453 42.2783 17.4951 43.0284C16.745 43.7786 15.7276 44.2 14.6667 44.2C13.6058 44.2 12.5884 43.7786 11.8383 43.0284C11.0881 42.2783 10.6667 41.2609 10.6667 40.2C10.6667 39.1391 11.0881 38.1217 11.8383 37.3716C12.5884 36.6214 13.6058 36.2 14.6667 36.2ZM14.6667 38.2C14.1363 38.2 13.6275 38.4107 13.2525 38.7858C12.8774 39.1609 12.6667 39.6696 12.6667 40.2C12.6667 40.7304 12.8774 41.2392 13.2525 41.6142C13.6275 41.9893 14.1363 42.2 14.6667 42.2C15.1971 42.2 15.7058 41.9893 16.0809 41.6142C16.456 41.2392 16.6667 40.7304 16.6667 40.2C16.6667 39.6696 16.456 39.1609 16.0809 38.7858C15.7058 38.4107 15.1971 38.2 14.6667 38.2ZM36.6667 12.2H9.20669L14.3067 24.2H30.6667C31.3267 24.2 31.9067 23.88 32.2667 23.4L38.2667 15.4C38.5267 15.06 38.6667 14.64 38.6667 14.2C38.6667 13.6696 38.456 13.1609 38.0809 12.7858C37.7058 12.4107 37.1971 12.2 36.6667 12.2ZM30.6667 26.2H14.4067L12.8667 29.32L12.6667 30.2C12.6667 30.7304 12.8774 31.2392 13.2525 31.6142C13.6275 31.9893 14.1363 32.2 14.6667 32.2H36.6667V34.2H14.6667C13.6058 34.2 12.5884 33.7786 11.8383 33.0284C11.0881 32.2783 10.6667 31.2609 10.6667 30.2C10.6661 29.5214 10.8382 28.8538 11.1667 28.26L12.6067 25.32L5.34669 8.20001H2.66669V6.20001H6.66669L8.36669 10.2H36.6667C37.7276 10.2 38.745 10.6214 39.4951 11.3716C40.2453 12.1217 40.6667 13.1391 40.6667 14.2C40.6667 15.2 40.3267 16.04 39.7667 16.72L33.9467 24.5C33.2267 25.52 32.0267 26.2 30.6667 26.2Z" fill="#1AB8F2"/>
</svg>
