<svg width="24" height="24" viewBox="0 0 48 49" fill="none" xmlns="http://www.w3.org/2000/svg">
<g clip-path="url(#clip0_203_588)">
<path d="M12.6508 26.1H17.9124V47.761C17.9124 48.1886 18.2589 48.5352 18.6865 48.5352H27.6077C28.0354 48.5352 28.3819 48.1886 28.3819 47.761V26.202H34.4305C34.8238 26.202 35.1547 25.9069 35.1996 25.5162L36.1183 17.5417C36.1435 17.3223 36.074 17.1026 35.9272 16.938C35.7803 16.7732 35.57 16.6789 35.3494 16.6789H28.3822V11.6801C28.3822 10.1732 29.1936 9.40912 30.794 9.40912C31.0221 9.40912 35.3494 9.40912 35.3494 9.40912C35.777 9.40912 36.1236 9.06243 36.1236 8.63492V1.31508C36.1236 0.887414 35.777 0.540885 35.3494 0.540885H29.0714C29.0271 0.538718 28.9288 0.535156 28.7839 0.535156C27.6946 0.535156 23.9083 0.748988 20.9175 3.50047C17.6036 6.54956 18.0643 10.2003 18.1743 10.8333V16.6788H12.6508C12.2231 16.6788 11.8766 17.0253 11.8766 17.453V25.3256C11.8766 25.7533 12.2231 26.1 12.6508 26.1Z" fill="#05434B"/>
</g>
<defs>
<clipPath id="clip0_203_588">
<rect width="48" height="48" fill="white" transform="translate(0 0.535156)"/>
</clipPath>
</defs>
</svg>
