<svg width="399" height="202" viewBox="0 0 399 202" fill="none" xmlns="http://www.w3.org/2000/svg">
<path d="M228.911 29.3333C242.071 35.648 245.295 60.0906 242.071 74.864C239.655 64.3866 234.551 60.4906 234.551 60.4906C236.7 79.4293 232.268 88.696 218.433 100.784C220.18 94.8746 218.433 91.6186 218.433 91.6186" stroke="#1AB8F2" stroke-width="2" stroke-linecap="round" stroke-linejoin="round"/>
<path d="M223.673 54.3147C227.969 77.4133 221.657 94.8747 200.439 110.453C218.433 78.936 207.559 71.76 212.692 52.704M237.74 38.3653C242.06 24.52 238.921 16.3093 226.625 14.832C219.3 13.952 212.692 16.576 204.332 23.4267C199.492 27.3947 186.068 26.648 186.068 26.648C177.071 19.3947 160.687 18.0533 164.849 37.2613M188.396 51.3387C185.777 52.4133 173.087 47.9787 165.497 54.5627M208.14 45.2267C202.7 50.6 201.02 59.328 201.02 59.328" stroke="#1AB8F2" stroke-width="2" stroke-linecap="round" stroke-linejoin="round"/>
<path d="M211.767 45.2266C202.54 41.76 188.932 51.1146 188.932 51.1146M178.481 66.4907C173.244 63.448 168.364 60.448 168.364 60.448C162.364 62.8666 157.753 63.4933 157.753 63.4933" stroke="#1AB8F2" stroke-width="2" stroke-linecap="round" stroke-linejoin="round"/>
<path d="M171.543 30.4106C167.156 38.4666 157.487 39.7226 157.127 44.152C156.767 48.5813 161.783 53.152 161.873 55.032C161.964 56.912 155.425 63.1786 155.785 68.8186C156.145 74.4586 162.5 84.936 162.5 84.936C162.5 84.936 166.081 83.168 166.887 81.152C168.028 88.136 176.353 98.208 176.353 98.208C174.273 103.915 173.668 113.787 183.271 113.317C192.873 112.848 208.217 92.7813 208.217 92.7813" stroke="#1AB8F2" stroke-width="2" stroke-linecap="round" stroke-linejoin="round"/>
<path d="M212.167 33.9467C192.471 29.8293 187.5 47.2427 177.697 50.864M232.492 26.5147C226.94 25.0827 218.167 25.1733 224.521 36.3627" stroke="#1AB8F2" stroke-width="2" stroke-linecap="round" stroke-linejoin="round"/>
<path d="M195.98 26.2507C182.639 29.4373 153.972 49.168 182.945 47.504M175.631 64.8213C170.356 70.208 162.863 69.7147 159.356 63.2027M159.7 79.8453C160.239 75.312 166.148 71.4613 170.625 76.4747C176.175 77.1013 190.321 72.8933 190.321 72.8933C190.321 72.8933 194.799 89.1867 197.841 94.112M200.439 92.0533C193.455 98.6773 196.297 104.547 194.161 107.653M202.767 64.344C204.111 72.4453 201.881 81.5787 201.881 81.5787" stroke="#1AB8F2" stroke-width="2" stroke-linecap="round" stroke-linejoin="round"/>
<path d="M209.889 88.3494C210.289 78.624 207.151 60.224 188.929 51.1147M195.98 90.2294C193.409 99.616 189.471 104.453 186.831 96.6187C186.831 96.6187 185.308 100.2 182.711 100.021C172.444 99.312 186.204 83.368 192.279 79.5494" stroke="#1AB8F2" stroke-width="2" stroke-linecap="round" stroke-linejoin="round"/>
<path d="M175.087 104.901C180.295 103.155 188.351 105.349 188.351 105.349L190.804 100.312M166.887 81.152L181.591 80.6373L185.228 85.928" stroke="#1AB8F2" stroke-width="2" stroke-linecap="round" stroke-linejoin="round"/>
<path d="M181.015 91.52C176.935 88.6506 173.26 80.928 173.26 80.928" stroke="#1AB8F2" stroke-width="2" stroke-linecap="round" stroke-linejoin="round"/>
<path d="M28.4003 159.864C28.4003 161.656 27.9683 163.336 27.1042 164.904C26.2723 166.472 24.9443 167.736 23.1203 168.696C21.3283 169.656 19.0563 170.136 16.3043 170.136H10.6883V183H3.96825V149.496H16.3043C18.8963 149.496 21.1043 149.944 22.9283 150.84C24.7523 151.736 26.1123 152.968 27.0083 154.536C27.9363 156.104 28.4003 157.88 28.4003 159.864ZM16.0163 164.712C17.8723 164.712 19.2483 164.296 20.1443 163.464C21.0403 162.6 21.4883 161.4 21.4883 159.864C21.4883 156.6 19.6643 154.968 16.0163 154.968H10.6883V164.712H16.0163ZM39.8914 154.92V163.32H51.1714V168.648H39.8914V177.528H52.6114V183H33.1714V149.448H52.6114V154.92H39.8914ZM81.5183 149.496V154.92H72.5903V183H65.8703V154.92H56.9423V149.496H81.5183ZM103.701 183L96.3094 169.944H93.1414V183H86.4214V149.496H98.9974C101.589 149.496 103.797 149.96 105.621 150.888C107.445 151.784 108.805 153.016 109.701 154.584C110.629 156.12 111.093 157.848 111.093 159.768C111.093 161.976 110.453 163.976 109.173 165.768C107.893 167.528 105.989 168.744 103.461 169.416L111.477 183H103.701ZM93.1414 164.904H98.7574C100.581 164.904 101.941 164.472 102.837 163.608C103.733 162.712 104.181 161.48 104.181 159.912C104.181 158.376 103.733 157.192 102.837 156.36C101.941 155.496 100.581 155.064 98.7574 155.064H93.1414V164.904ZM132.723 183.336C129.587 183.336 126.707 182.6 124.083 181.128C121.459 179.656 119.379 177.624 117.843 175.032C116.307 172.408 115.539 169.448 115.539 166.152C115.539 162.888 116.307 159.96 117.843 157.368C119.379 154.744 121.459 152.696 124.083 151.224C126.707 149.752 129.587 149.016 132.723 149.016C135.891 149.016 138.771 149.752 141.363 151.224C143.987 152.696 146.051 154.744 147.555 157.368C149.091 159.96 149.859 162.888 149.859 166.152C149.859 169.448 149.091 172.408 147.555 175.032C146.051 177.624 143.987 179.656 141.363 181.128C138.739 182.6 135.859 183.336 132.723 183.336ZM132.723 177.336C134.739 177.336 136.515 176.888 138.051 175.992C139.587 175.064 140.787 173.752 141.651 172.056C142.515 170.36 142.947 168.392 142.947 166.152C142.947 163.912 142.515 161.96 141.651 160.296C140.787 158.6 139.587 157.304 138.051 156.408C136.515 155.512 134.739 155.064 132.723 155.064C130.707 155.064 128.915 155.512 127.347 156.408C125.811 157.304 124.611 158.6 123.747 160.296C122.883 161.96 122.451 163.912 122.451 166.152C122.451 168.392 122.883 170.36 123.747 172.056C124.611 173.752 125.811 175.064 127.347 175.992C128.915 176.888 130.707 177.336 132.723 177.336ZM173.771 183L161.579 168.072V183H154.859V149.496H161.579V164.52L173.771 149.496H181.883L168.059 166.104L182.267 183H173.771ZM207.231 176.616H193.887L191.679 183H184.623L196.671 149.448H204.495L216.543 183H209.439L207.231 176.616ZM205.407 171.24L200.559 157.224L195.711 171.24H205.407ZM255.812 159.576C255.044 158.168 253.988 157.096 252.644 156.36C251.3 155.624 249.732 155.256 247.94 155.256C245.956 155.256 244.196 155.704 242.66 156.6C241.124 157.496 239.924 158.776 239.06 160.44C238.196 162.104 237.764 164.024 237.764 166.2C237.764 168.44 238.196 170.392 239.06 172.056C239.956 173.72 241.188 175 242.756 175.896C244.324 176.792 246.148 177.24 248.228 177.24C250.788 177.24 252.884 176.568 254.516 175.224C256.148 173.848 257.22 171.944 257.732 169.512H246.212V164.376H264.356V170.232C263.908 172.568 262.948 174.728 261.476 176.712C260.004 178.696 258.1 180.296 255.764 181.512C253.46 182.696 250.868 183.288 247.988 183.288C244.756 183.288 241.828 182.568 239.204 181.128C236.612 179.656 234.564 177.624 233.06 175.032C231.588 172.44 230.852 169.496 230.852 166.2C230.852 162.904 231.588 159.96 233.06 157.368C234.564 154.744 236.612 152.712 239.204 151.272C241.828 149.8 244.74 149.064 247.94 149.064C251.716 149.064 254.996 149.992 257.78 151.848C260.564 153.672 262.484 156.248 263.54 159.576H255.812ZM289.872 176.616H276.528L274.32 183H267.264L279.312 149.448H287.136L299.184 183H292.08L289.872 176.616ZM288.048 171.24L283.2 157.224L278.352 171.24H288.048ZM340.215 149.496V183H333.495V161.208L324.519 183H319.431L310.407 161.208V183H303.687V149.496H311.319L321.975 174.408L332.631 149.496H340.215ZM353.579 154.92V163.32H364.859V168.648H353.579V177.528H366.299V183H346.859V149.448H366.299V154.92H353.579ZM383.974 183.336C381.638 183.336 379.526 182.936 377.638 182.136C375.782 181.336 374.31 180.184 373.222 178.68C372.134 177.176 371.574 175.4 371.542 173.352H378.742C378.838 174.728 379.318 175.816 380.182 176.616C381.078 177.416 382.294 177.816 383.83 177.816C385.398 177.816 386.63 177.448 387.526 176.712C388.422 175.944 388.87 174.952 388.87 173.736C388.87 172.744 388.566 171.928 387.958 171.288C387.35 170.648 386.582 170.152 385.654 169.8C384.758 169.416 383.51 169 381.91 168.552C379.734 167.912 377.958 167.288 376.582 166.68C375.238 166.04 374.07 165.096 373.078 163.848C372.118 162.568 371.638 160.872 371.638 158.76C371.638 156.776 372.134 155.048 373.126 153.576C374.118 152.104 375.51 150.984 377.302 150.216C379.094 149.416 381.142 149.016 383.446 149.016C386.902 149.016 389.702 149.864 391.846 151.56C394.022 153.224 395.222 155.56 395.446 158.568H388.054C387.99 157.416 387.494 156.472 386.566 155.736C385.67 154.968 384.47 154.584 382.966 154.584C381.654 154.584 380.598 154.92 379.798 155.592C379.03 156.264 378.646 157.24 378.646 158.52C378.646 159.416 378.934 160.168 379.51 160.776C380.118 161.352 380.854 161.832 381.718 162.216C382.614 162.568 383.862 162.984 385.462 163.464C387.638 164.104 389.414 164.744 390.79 165.384C392.166 166.024 393.35 166.984 394.342 168.264C395.334 169.544 395.83 171.224 395.83 173.304C395.83 175.096 395.366 176.76 394.438 178.296C393.51 179.832 392.15 181.064 390.358 181.992C388.566 182.888 386.438 183.336 383.974 183.336Z" fill="#1AB8F2"/>
</svg>
