<svg id="visual" viewBox="0 0 900 600" width="900" height="600" xmlns="http://www.w3.org/2000/svg" xmlns:xlink="http://www.w3.org/1999/xlink" version="1.1"><rect x="0" y="0" width="900" height="600" fill="#181818"></rect><path d="M0 385L21.5 391.3C43 397.7 86 410.3 128.8 409C171.7 407.7 214.3 392.3 257.2 404.3C300 416.3 343 455.7 385.8 464.5C428.7 473.3 471.3 451.7 514.2 432C557 412.3 600 394.7 642.8 404.2C685.7 413.7 728.3 450.3 771.2 450.2C814 450 857 413 878.5 394.5L900 376L900 601L878.5 601C857 601 814 601 771.2 601C728.3 601 685.7 601 642.8 601C600 601 557 601 514.2 601C471.3 601 428.7 601 385.8 601C343 601 300 601 257.2 601C214.3 601 171.7 601 128.8 601C86 601 43 601 21.5 601L0 601Z" fill="#ff2626" stroke-linecap="round" stroke-linejoin="miter"></path></svg>