<svg width="24" height="24" viewBox="0 0 48 49" fill="none" xmlns="http://www.w3.org/2000/svg">
<path d="M47.428 25.0548C47.428 23.0883 47.2684 21.6532 46.9231 20.165H24.4672V29.041H37.6483C37.3826 31.2468 35.9476 34.5687 32.7585 36.8009L32.7138 37.098L39.814 42.5984L40.3059 42.6475C44.8236 38.4752 47.428 32.3363 47.428 25.0548Z" fill="#4285F4"/>
<path d="M24.4672 48.4408C30.9248 48.4408 36.3461 46.3147 40.3059 42.6475L32.7585 36.8008C30.7389 38.2093 28.0282 39.1926 24.4672 39.1926C18.1424 39.1926 12.7742 35.0204 10.8606 29.2537L10.5802 29.2775L3.19732 34.9911L3.10077 35.2595C7.03384 43.0725 15.1127 48.4408 24.4672 48.4408Z" fill="#34A853"/>
<path d="M10.8606 29.2536C10.3557 27.7654 10.0635 26.1707 10.0635 24.5232C10.0635 22.8754 10.3557 21.281 10.8341 19.7928L10.8207 19.4758L3.34535 13.6704L3.10077 13.7867C1.47976 17.0289 0.549622 20.6698 0.549622 24.5232C0.549622 28.3765 1.47976 32.0172 3.10077 35.2594L10.8606 29.2536Z" fill="#FBBC05"/>
<path d="M24.4672 9.85377C28.9583 9.85377 31.9878 11.7937 33.7152 13.4149L40.4653 6.82428C36.3197 2.9709 30.9248 0.605713 24.4672 0.605713C15.1127 0.605713 7.03384 5.97383 3.10077 13.7868L10.8341 19.7929C12.7742 14.0261 18.1424 9.85377 24.4672 9.85377Z" fill="#EB4335"/>
</svg>
