<svg width="49" height="49" viewBox="0 0 49 49" fill="none" xmlns="http://www.w3.org/2000/svg">
<g clip-path="url(#clip0_119_1254)">
<path d="M15.3333 16.4V26.4M20.3333 21.4H10.3333M8.51529 41.4H11.3333C11.3333 41.4 14.3333 31.4 24.3333 31.4C34.3333 31.4 37.3333 41.4 37.3333 41.4H40.1513C41.2317 41.4004 42.2983 41.1569 43.2715 40.6877C44.2448 40.2185 45.0996 39.5357 45.7722 38.6902C46.4449 37.8447 46.9181 36.8583 47.1565 35.8045C47.3949 34.7507 47.3925 33.6567 47.1493 32.604L41.3333 7.40002H40.8333C40.8333 7.40002 34.3333 9.40002 24.3333 9.40002C14.3333 9.40002 7.83329 7.40002 7.83329 7.40002H7.33329L1.51729 32.604C1.27412 33.6567 1.27166 34.7507 1.51009 35.8045C1.74852 36.8583 2.2217 37.8447 2.89436 38.6902C3.56702 39.5357 4.42182 40.2185 5.39505 40.6877C6.36829 41.1569 7.43486 41.4004 8.51529 41.4ZM33.3333 17.4C34.3942 17.4 35.4116 17.8215 36.1617 18.5716C36.9119 19.3217 37.3333 20.3392 37.3333 21.4C37.3333 22.4609 36.9119 23.4783 36.1617 24.2285C35.4116 24.9786 34.3942 25.4 33.3333 25.4C32.2724 25.4 31.255 24.9786 30.5049 24.2285C29.7547 23.4783 29.3333 22.4609 29.3333 21.4C29.3333 20.3392 29.7547 19.3217 30.5049 18.5716C31.255 17.8215 32.2724 17.4 33.3333 17.4Z" stroke="#1AB8F2" stroke-width="1.3"/>
</g>
<defs>
<clipPath id="clip0_119_1254">
<rect width="48" height="48" fill="white" transform="translate(0.333313 0.400024)"/>
</clipPath>
</defs>
</svg>
