<svg width="25" height="24" viewBox="0 0 25 24" fill="none" xmlns="http://www.w3.org/2000/svg">
<path d="M12.3333 20.962C10.324 20.3653 8.65498 19.1483 7.32631 17.311C5.99765 15.4737 5.33331 13.4033 5.33331 11.1V5.692L12.3333 3.077L19.3333 5.692V11.1C19.3333 12.222 19.159 13.3217 18.8103 14.399C18.4616 15.477 17.9206 16.5093 17.1873 17.496L14.1023 14.412C13.8536 14.608 13.5776 14.755 13.2743 14.853C12.971 14.951 12.6573 15 12.3333 15C11.5086 15 10.8023 14.7063 10.2143 14.119C9.62631 13.5317 9.33265 12.8253 9.33331 12C9.33398 11.1747 9.62765 10.4683 10.2143 9.881C10.801 9.29366 11.5073 9 12.3333 9C13.1593 9 13.8656 9.29366 14.4523 9.881C15.039 10.4683 15.3326 11.1747 15.3333 12C15.3333 12.3087 15.2876 12.6067 15.1963 12.894C15.1043 13.1813 14.9796 13.4513 14.8223 13.704L17.0523 15.934C17.437 15.2127 17.7466 14.4547 17.9813 13.66C18.216 12.8647 18.3333 12.0113 18.3333 11.1V6.375L12.3333 4.145L6.33331 6.375V11.1C6.33331 13.1167 6.89998 14.95 8.03331 16.6C9.16665 18.25 10.6 19.35 12.3333 19.9C12.7666 19.7667 13.1793 19.596 13.5713 19.388C13.9633 19.18 14.3506 18.934 14.7333 18.65L15.3633 19.396C14.8653 19.756 14.382 20.0613 13.9133 20.312C13.4446 20.562 12.918 20.7787 12.3333 20.962ZM12.3333 14C12.8833 14 13.3543 13.8043 13.7463 13.413C14.1383 13.0217 14.334 12.5507 14.3333 12C14.3326 11.4493 14.137 10.9787 13.7463 10.588C13.3556 10.1973 12.8846 10.0013 12.3333 10C11.782 9.99866 11.3113 10.1947 10.9213 10.588C10.5313 10.9813 10.3353 11.452 10.3333 12C10.3313 12.548 10.5273 13.019 10.9213 13.413C11.3153 13.807 11.786 14.0027 12.3333 14Z" fill="#F6F6F6"/>
</svg>
