<svg width="29" height="29" viewBox="0 0 29 29" fill="none" xmlns="http://www.w3.org/2000/svg">
<rect x="0.666687" y="0.700012" width="28" height="28" rx="4" fill="#323232" fill-opacity="0.9"/>
<path d="M20.5 26.3667C19.5278 26.3667 18.7014 26.0264 18.0208 25.3458C17.3403 24.6653 17 23.8389 17 22.8667C17 22.75 17.0292 22.4778 17.0875 22.05L8.89167 17.2667C8.58056 17.5583 8.22083 17.7868 7.8125 17.9521C7.40417 18.1174 6.96667 18.2 6.5 18.2C5.52778 18.2 4.70139 17.8597 4.02083 17.1792C3.34028 16.4986 3 15.6722 3 14.7C3 13.7278 3.34028 12.9014 4.02083 12.2208C4.70139 11.5403 5.52778 11.2 6.5 11.2C6.96667 11.2 7.40417 11.2826 7.8125 11.4479C8.22083 11.6132 8.58056 11.8417 8.89167 12.1333L17.0875 7.34999C17.0486 7.21388 17.0243 7.08263 17.0146 6.95624C17.0049 6.82985 17 6.68888 17 6.53332C17 5.5611 17.3403 4.73471 18.0208 4.05416C18.7014 3.3736 19.5278 3.03333 20.5 3.03333C21.4722 3.03333 22.2986 3.3736 22.9792 4.05416C23.6597 4.73471 24 5.5611 24 6.53332C24 7.50555 23.6597 8.33194 22.9792 9.01249C22.2986 9.69305 21.4722 10.0333 20.5 10.0333C20.0333 10.0333 19.5958 9.95069 19.1875 9.78541C18.7792 9.62013 18.4194 9.39166 18.1083 9.09999L9.9125 13.8833C9.95139 14.0194 9.97569 14.1507 9.98542 14.2771C9.99514 14.4035 10 14.5444 10 14.7C10 14.8555 9.99514 14.9965 9.98542 15.1229C9.97569 15.2493 9.95139 15.3805 9.9125 15.5167L18.1083 20.3C18.4194 20.0083 18.7792 19.7799 19.1875 19.6146C19.5958 19.4493 20.0333 19.3667 20.5 19.3667C21.4722 19.3667 22.2986 19.7069 22.9792 20.3875C23.6597 21.068 24 21.8944 24 22.8667C24 23.8389 23.6597 24.6653 22.9792 25.3458C22.2986 26.0264 21.4722 26.3667 20.5 26.3667ZM20.5 24.0333C20.8306 24.0333 21.1076 23.9215 21.3313 23.6979C21.5549 23.4743 21.6667 23.1972 21.6667 22.8667C21.6667 22.5361 21.5549 22.259 21.3313 22.0354C21.1076 21.8118 20.8306 21.7 20.5 21.7C20.1694 21.7 19.8924 21.8118 19.6688 22.0354C19.4451 22.259 19.3333 22.5361 19.3333 22.8667C19.3333 23.1972 19.4451 23.4743 19.6688 23.6979C19.8924 23.9215 20.1694 24.0333 20.5 24.0333ZM6.5 15.8667C6.83056 15.8667 7.10764 15.7549 7.33125 15.5312C7.55486 15.3076 7.66667 15.0305 7.66667 14.7C7.66667 14.3694 7.55486 14.0924 7.33125 13.8687C7.10764 13.6451 6.83056 13.5333 6.5 13.5333C6.16944 13.5333 5.89236 13.6451 5.66875 13.8687C5.44514 14.0924 5.33333 14.3694 5.33333 14.7C5.33333 15.0305 5.44514 15.3076 5.66875 15.5312C5.89236 15.7549 6.16944 15.8667 6.5 15.8667ZM20.5 7.69999C20.8306 7.69999 21.1076 7.58819 21.3313 7.36457C21.5549 7.14096 21.6667 6.86388 21.6667 6.53332C21.6667 6.20277 21.5549 5.92569 21.3313 5.70208C21.1076 5.47846 20.8306 5.36666 20.5 5.36666C20.1694 5.36666 19.8924 5.47846 19.6688 5.70208C19.4451 5.92569 19.3333 6.20277 19.3333 6.53332C19.3333 6.86388 19.4451 7.14096 19.6688 7.36457C19.8924 7.58819 20.1694 7.69999 20.5 7.69999Z" fill="#CACACA"/>
</svg>
