<svg width="49" height="49" viewBox="0 0 49 49" fill="none" xmlns="http://www.w3.org/2000/svg">
<g clip-path="url(#clip0_26_1405)">
<path d="M21.7733 0.975981C13.3407 1.85598 5.80596 7.40766 2.38068 15.264C0.173318 20.336 -0.194042 26.176 1.37332 31.5523C3.30932 38.256 8.31732 43.9197 14.7973 46.7523C19.8693 48.9597 25.7093 49.327 31.086 47.7597C39.1333 45.4397 45.4696 38.8323 47.5496 30.6237C50.797 17.76 42.8293 4.60702 29.9333 1.53598C27.1007 0.863981 24.606 0.687661 21.7733 0.975981ZM22.0933 15.84C24.1407 18.56 25.8693 20.8 25.9333 20.8C25.9973 20.8 28.126 18.56 30.6373 15.84L35.2293 10.88H37.8373L37.2773 11.4726C36.9573 11.8073 34.8773 14.0637 32.6533 16.48C30.4293 18.896 28.2533 21.2473 27.8207 21.68L27.0533 22.496L33.0533 30.48C36.3493 34.88 39.0533 38.5273 39.0533 38.5926C39.0533 38.6726 37.086 38.72 34.7007 38.72L30.3333 38.704L26.2693 33.264C23.4693 29.504 22.1573 27.887 22.0293 27.984C21.9333 28.064 19.6607 30.5126 16.9733 33.424L12.0933 38.72H10.8607C10.1733 38.72 9.61332 38.6873 9.61332 38.64C9.61332 38.5926 12.1573 35.8073 15.2607 32.464C18.3496 29.12 20.9096 26.32 20.9407 26.2726C20.9573 26.2073 18.4133 22.736 15.2933 18.56C12.1733 14.4 9.61332 10.96 9.61332 10.9273C9.61332 10.8963 11.5807 10.88 13.9973 10.88H18.3807L22.0933 15.84Z" fill="#1AB8F2"/>
<path d="M13.5659 13.024C13.6296 13.136 17.6607 18.544 22.4933 25.0073L31.2933 36.7837L33.2607 36.8C34.477 36.8 35.2133 36.736 35.1807 36.64C35.1659 36.56 31.1496 31.1526 26.2859 24.64L17.4207 12.8H15.4373C13.7899 12.8 13.4533 12.8326 13.5659 13.024Z" fill="#1AB8F2"/>
</g>
<defs>
<clipPath id="clip0_26_1405">
<rect width="48" height="48" fill="white" transform="translate(0.333313 0.799988)"/>
</clipPath>
</defs>
</svg>
