<svg width="129" height="128" viewBox="0 0 129 128" fill="none" xmlns="http://www.w3.org/2000/svg">
<path d="M64.25 64C58.3834 64 53.3612 61.9111 49.1834 57.7333C45.0056 53.5555 42.9167 48.5333 42.9167 42.6666C42.9167 36.8 45.0056 31.7778 49.1834 27.6C53.3612 23.4222 58.3834 21.3333 64.25 21.3333C70.1167 21.3333 75.1389 23.4222 79.3167 27.6C83.4945 31.7778 85.5834 36.8 85.5834 42.6666C85.5834 48.5333 83.4945 53.5555 79.3167 57.7333C75.1389 61.9111 70.1167 64 64.25 64ZM21.5834 106.667V91.7333C21.5834 88.7111 22.3612 85.9333 23.9167 83.4C25.4723 80.8666 27.5389 78.9333 30.1167 77.6C35.6278 74.8444 41.2278 72.7778 46.9167 71.4C52.6056 70.0222 58.3834 69.3333 64.25 69.3333C70.1167 69.3333 75.8945 70.0222 81.5834 71.4C87.2723 72.7778 92.8723 74.8444 98.3834 77.6C100.961 78.9333 103.028 80.8666 104.583 83.4C106.139 85.9333 106.917 88.7111 106.917 91.7333V106.667H21.5834ZM32.25 96H96.25V91.7333C96.25 90.7555 96.0056 89.8666 95.5167 89.0666C95.0278 88.2666 94.3834 87.6444 93.5834 87.2C88.7834 84.8 83.9389 83 79.05 81.8C74.1611 80.6 69.2278 80 64.25 80C59.2723 80 54.3389 80.6 49.45 81.8C44.5611 83 39.7167 84.8 34.9167 87.2C34.1167 87.6444 33.4723 88.2666 32.9834 89.0666C32.4945 89.8666 32.25 90.7555 32.25 91.7333V96ZM64.25 53.3333C67.1834 53.3333 69.6945 52.2889 71.7834 50.2C73.8723 48.1111 74.9167 45.6 74.9167 42.6666C74.9167 39.7333 73.8723 37.2222 71.7834 35.1333C69.6945 33.0444 67.1834 32 64.25 32C61.3167 32 58.8056 33.0444 56.7167 35.1333C54.6278 37.2222 53.5834 39.7333 53.5834 42.6666C53.5834 45.6 54.6278 48.1111 56.7167 50.2C58.8056 52.2889 61.3167 53.3333 64.25 53.3333Z" fill="#1AB8F2"/>
</svg>
