<svg width="25" height="25" viewBox="0 0 25 25" fill="none" xmlns="http://www.w3.org/2000/svg">
<g clip-path="url(#clip0_12_2968)">
<path d="M11.9167 23.3001H2.16671V2.30013H11.9167C12.3307 2.30013 12.6667 1.9641 12.6667 1.55015C12.6667 1.1362 12.3306 0.800171 11.9167 0.800171H1.41667C1.00271 0.800171 0.666687 1.13613 0.666687 1.55015V24.0501C0.666687 24.4641 1.00271 24.8 1.41667 24.8H11.9166C12.3306 24.8 12.6666 24.464 12.6666 24.0501C12.6667 23.6361 12.3306 23.3001 11.9167 23.3001Z" fill="#F6F6F6"/>
<path d="M24.4491 12.2765L19.2741 7.02727C18.9809 6.73102 18.5061 6.73176 18.2136 7.02727C17.9203 7.32277 17.9203 7.80274 18.2136 8.09825L22.1136 12.0545H6.66892C6.25491 12.0545 5.91895 12.3935 5.91895 12.812C5.91895 13.2305 6.25497 13.5695 6.66892 13.5695H22.1136L18.2136 17.5258C17.9203 17.822 17.9203 18.3013 18.2136 18.5968C18.5069 18.893 18.9816 18.893 19.2741 18.5968L24.4483 13.3475C24.7379 13.0558 24.7409 12.5675 24.4491 12.2765Z" fill="#F6F6F6"/>
</g>
<defs>
<clipPath id="clip0_12_2968">
<rect width="24" height="24" fill="white" transform="translate(0.666687 0.799988)"/>
</clipPath>
</defs>
</svg>
