<svg width="129" height="128" viewBox="0 0 129 128" fill="none" xmlns="http://www.w3.org/2000/svg">
<path d="M93.9107 29.3333C107.071 35.648 110.295 60.0906 107.071 74.864C104.655 64.3866 99.5507 60.4906 99.5507 60.4906C101.7 79.4293 97.268 88.696 83.4333 100.784C85.18 94.8746 83.4333 91.6186 83.4333 91.6186" stroke="#1AB8F2" stroke-width="2" stroke-linecap="round" stroke-linejoin="round"/>
<path d="M88.6734 54.3147C92.9694 77.4133 86.6574 94.8747 65.4387 110.453C83.4334 78.936 72.5587 71.76 77.692 52.704M102.74 38.3653C107.06 24.52 103.921 16.3093 91.6254 14.832C84.3 13.952 77.692 16.576 69.332 23.4267C64.492 27.3947 51.068 26.648 51.068 26.648C42.0707 19.3947 25.6867 18.0533 29.8494 37.2613M53.396 51.3387C50.7774 52.4133 38.0867 47.9787 30.4974 54.5627M73.14 45.2267C67.7 50.6 66.02 59.328 66.02 59.328" stroke="#1AB8F2" stroke-width="2" stroke-linecap="round" stroke-linejoin="round"/>
<path d="M76.7668 45.2266C67.5401 41.76 53.9321 51.1146 53.9321 51.1146M43.4814 66.4907C38.2441 63.448 33.3641 60.448 33.3641 60.448C27.3641 62.8666 22.7534 63.4933 22.7534 63.4933" stroke="#1AB8F2" stroke-width="2" stroke-linecap="round" stroke-linejoin="round"/>
<path d="M36.5427 30.4106C32.156 38.4666 22.4867 39.7226 22.1267 44.152C21.7667 48.5813 26.7827 53.152 26.8733 55.032C26.964 56.912 20.4253 63.1786 20.7853 68.8186C21.1453 74.4586 27.5 84.936 27.5 84.936C27.5 84.936 31.0813 83.168 31.8867 81.152C33.028 88.136 41.3533 98.208 41.3533 98.208C39.2733 103.915 38.668 113.787 48.2707 113.317C57.8733 112.848 73.2173 92.7813 73.2173 92.7813" stroke="#1AB8F2" stroke-width="2" stroke-linecap="round" stroke-linejoin="round"/>
<path d="M77.1666 33.9467C57.4706 29.8293 52.4999 47.2427 42.6973 50.864M97.4919 26.5147C91.9399 25.0827 83.1666 25.1733 89.5213 36.3627" stroke="#1AB8F2" stroke-width="2" stroke-linecap="round" stroke-linejoin="round"/>
<path d="M60.98 26.2507C47.6386 29.4373 18.972 49.168 47.9453 47.504M40.6306 64.8213C35.356 70.208 27.8626 69.7147 24.356 63.2027M24.7 79.8453C25.2386 75.312 31.148 71.4613 35.6253 76.4747C41.1746 77.1013 55.3213 72.8933 55.3213 72.8933C55.3213 72.8933 59.7986 89.1867 62.8413 94.112M65.4386 92.0533C58.4546 98.6773 61.2973 104.547 59.1613 107.653M67.7666 64.344C69.1106 72.4453 66.8813 81.5787 66.8813 81.5787" stroke="#1AB8F2" stroke-width="2" stroke-linecap="round" stroke-linejoin="round"/>
<path d="M74.8893 88.3494C75.2893 78.624 72.1507 60.224 53.9293 51.1147M60.98 90.2294C58.4093 99.616 54.4707 104.453 51.8307 96.6187C51.8307 96.6187 50.308 100.2 47.7107 100.021C37.444 99.312 51.204 83.368 57.2787 79.5494" stroke="#1AB8F2" stroke-width="2" stroke-linecap="round" stroke-linejoin="round"/>
<path d="M40.0867 104.901C45.2947 103.155 53.3507 105.349 53.3507 105.349L55.8041 100.312M31.8867 81.152L46.5907 80.6373L50.2281 85.928" stroke="#1AB8F2" stroke-width="2" stroke-linecap="round" stroke-linejoin="round"/>
<path d="M46.0147 91.52C41.9347 88.6506 38.26 80.928 38.26 80.928" stroke="#1AB8F2" stroke-width="2" stroke-linecap="round" stroke-linejoin="round"/>
</svg>
