<svg width="134" height="74" viewBox="0 0 134 74" fill="none" xmlns="http://www.w3.org/2000/svg">
<path d="M77.7791 11C82.7141 13.368 83.9231 22.534 82.7141 28.074C81.8081 24.145 79.8941 22.684 79.8941 22.684C80.7001 29.786 79.0381 33.261 73.8501 37.794C74.5051 35.578 73.8501 34.357 73.8501 34.357" stroke="#1AB8F2" stroke-linecap="round" stroke-linejoin="round"/>
<path d="M75.815 20.368C77.426 29.03 75.059 35.578 67.102 41.42C73.85 29.601 69.772 26.91 71.697 19.764M81.09 14.387C82.71 9.195 81.533 6.116 76.922 5.562C74.175 5.232 71.697 6.216 68.562 8.785C66.747 10.273 61.713 9.993 61.713 9.993C58.339 7.273 52.195 6.77 53.756 13.973M62.586 19.252C61.604 19.655 56.845 17.992 53.999 20.461M69.99 16.96C67.95 18.975 67.32 22.248 67.32 22.248" stroke="#1AB8F2" stroke-linecap="round" stroke-linejoin="round"/>
<path d="M71.35 16.96C67.89 15.66 62.787 19.168 62.787 19.168M58.868 24.934C56.904 23.793 55.074 22.668 55.074 22.668C52.824 23.575 51.095 23.81 51.095 23.81" stroke="#1AB8F2" stroke-linecap="round" stroke-linejoin="round"/>
<path d="M56.2659 11.404C54.6209 14.425 50.9949 14.896 50.8599 16.557C50.7249 18.218 52.6059 19.932 52.6399 20.637C52.6739 21.342 50.2219 23.692 50.3569 25.807C50.4919 27.922 52.8749 31.851 52.8749 31.851C52.8749 31.851 54.2179 31.188 54.5199 30.432C54.9479 33.051 58.0699 36.828 58.0699 36.828C57.2899 38.968 57.0629 42.67 60.6639 42.494C64.2649 42.318 70.0189 34.793 70.0189 34.793" stroke="#1AB8F2" stroke-linecap="round" stroke-linejoin="round"/>
<path d="M71.5 12.73C64.114 11.186 62.25 17.716 58.574 19.074M79.122 9.94301C77.04 9.40601 73.75 9.44001 76.133 13.636" stroke="#1AB8F2" stroke-linecap="round" stroke-linejoin="round"/>
<path d="M65.43 9.84399C60.427 11.039 49.677 18.438 60.542 17.814M57.799 24.308C55.821 26.328 53.011 26.143 51.696 23.701M51.825 29.942C52.027 28.242 54.243 26.798 55.922 28.678C58.003 28.913 63.308 27.335 63.308 27.335C63.308 27.335 64.987 33.445 66.128 35.292M67.102 34.52C64.483 37.004 65.549 39.205 64.748 40.37M67.975 24.129C68.479 27.167 67.643 30.592 67.643 30.592" stroke="#1AB8F2" stroke-linecap="round" stroke-linejoin="round"/>
<path d="M70.646 33.131C70.796 29.484 69.619 22.584 62.786 19.168M65.43 33.836C64.466 37.356 62.989 39.17 61.999 36.232C61.999 36.232 61.428 37.575 60.454 37.508C56.604 37.242 61.764 31.263 64.042 29.831" stroke="#1AB8F2" stroke-linecap="round" stroke-linejoin="round"/>
<path d="M57.595 39.338C59.548 38.683 62.569 39.506 62.569 39.506L63.489 37.617M54.52 30.432L60.034 30.239L61.398 32.223" stroke="#1AB8F2" stroke-linecap="round" stroke-linejoin="round"/>
<path d="M59.8179 34.32C58.2879 33.244 56.9099 30.348 56.9099 30.348" stroke="#1AB8F2" stroke-linecap="round" stroke-linejoin="round"/>
<path d="M9.71675 60.288C9.71675 60.8853 9.57275 61.4453 9.28475 61.968C9.00742 62.4907 8.56475 62.912 7.95675 63.232C7.35942 63.552 6.60208 63.712 5.68475 63.712H3.81275V68H1.57275V56.832H5.68475C6.54875 56.832 7.28475 56.9813 7.89275 57.28C8.50075 57.5787 8.95408 57.9893 9.25275 58.512C9.56208 59.0347 9.71675 59.6267 9.71675 60.288ZM5.58875 61.904C6.20742 61.904 6.66608 61.7653 6.96475 61.488C7.26342 61.2 7.41275 60.8 7.41275 60.288C7.41275 59.2 6.80475 58.656 5.58875 58.656H3.81275V61.904H5.58875ZM13.5471 58.64V61.44H17.3071V63.216H13.5471V66.176H17.7871V68H11.3071V56.816H17.7871V58.64H13.5471ZM27.4228 56.832V58.64H24.4468V68H22.2068V58.64H19.2308V56.832H27.4228ZM34.8171 68L32.3531 63.648H31.2971V68H29.0571V56.832H33.2491C34.1131 56.832 34.8491 56.9867 35.4571 57.296C36.0651 57.5947 36.5185 58.0053 36.8171 58.528C37.1265 59.04 37.2811 59.616 37.2811 60.256C37.2811 60.992 37.0678 61.6587 36.6411 62.256C36.2145 62.8427 35.5798 63.248 34.7371 63.472L37.4091 68H34.8171ZM31.2971 61.968H33.1691C33.7771 61.968 34.2305 61.824 34.5291 61.536C34.8278 61.2373 34.9771 60.8267 34.9771 60.304C34.9771 59.792 34.8278 59.3973 34.5291 59.12C34.2305 58.832 33.7771 58.688 33.1691 58.688H31.2971V61.968ZM44.4911 68.112C43.4458 68.112 42.4858 67.8667 41.6111 67.376C40.7365 66.8853 40.0431 66.208 39.5311 65.344C39.0191 64.4693 38.7631 63.4827 38.7631 62.384C38.7631 61.296 39.0191 60.32 39.5311 59.456C40.0431 58.5813 40.7365 57.8987 41.6111 57.408C42.4858 56.9173 43.4458 56.672 44.4911 56.672C45.5471 56.672 46.5071 56.9173 47.3711 57.408C48.2458 57.8987 48.9338 58.5813 49.4351 59.456C49.9471 60.32 50.2031 61.296 50.2031 62.384C50.2031 63.4827 49.9471 64.4693 49.4351 65.344C48.9338 66.208 48.2458 66.8853 47.3711 67.376C46.4965 67.8667 45.5365 68.112 44.4911 68.112ZM44.4911 66.112C45.1631 66.112 45.7551 65.9627 46.2671 65.664C46.7791 65.3547 47.1791 64.9173 47.4671 64.352C47.7551 63.7867 47.8991 63.1307 47.8991 62.384C47.8991 61.6373 47.7551 60.9867 47.4671 60.432C47.1791 59.8667 46.7791 59.4347 46.2671 59.136C45.7551 58.8373 45.1631 58.688 44.4911 58.688C43.8191 58.688 43.2218 58.8373 42.6991 59.136C42.1871 59.4347 41.7871 59.8667 41.4991 60.432C41.2111 60.9867 41.0671 61.6373 41.0671 62.384C41.0671 63.1307 41.2111 63.7867 41.4991 64.352C41.7871 64.9173 42.1871 65.3547 42.6991 65.664C43.2218 65.9627 43.8191 66.112 44.4911 66.112ZM58.1736 68L54.1096 63.024V68H51.8696V56.832H54.1096V61.84L58.1736 56.832H60.8776L56.2696 62.368L61.0056 68H58.1736ZM69.327 65.872H64.879L64.143 68H61.791L65.807 56.816H68.415L72.431 68H70.063L69.327 65.872ZM68.719 64.08L67.103 59.408L65.487 64.08H68.719ZM85.5206 60.192C85.2646 59.7227 84.9126 59.3653 84.4646 59.12C84.0166 58.8747 83.494 58.752 82.8966 58.752C82.2353 58.752 81.6486 58.9013 81.1366 59.2C80.6246 59.4987 80.2246 59.9253 79.9366 60.48C79.6486 61.0347 79.5046 61.6747 79.5046 62.4C79.5046 63.1467 79.6486 63.7973 79.9366 64.352C80.2353 64.9067 80.646 65.3333 81.1686 65.632C81.6913 65.9307 82.2993 66.08 82.9926 66.08C83.846 66.08 84.5446 65.856 85.0886 65.408C85.6326 64.9493 85.99 64.3147 86.1606 63.504H82.3206V61.792H88.3686V63.744C88.2193 64.5227 87.8993 65.2427 87.4086 65.904C86.918 66.5653 86.2833 67.0987 85.5046 67.504C84.7366 67.8987 83.8726 68.096 82.9126 68.096C81.8353 68.096 80.8593 67.856 79.9846 67.376C79.1206 66.8853 78.438 66.208 77.9366 65.344C77.446 64.48 77.2006 63.4987 77.2006 62.4C77.2006 61.3013 77.446 60.32 77.9366 59.456C78.438 58.5813 79.1206 57.904 79.9846 57.424C80.8593 56.9333 81.83 56.688 82.8966 56.688C84.1553 56.688 85.2486 56.9973 86.1766 57.616C87.1046 58.224 87.7446 59.0827 88.0966 60.192H85.5206ZM96.8739 65.872H92.4259L91.6899 68H89.3379L93.3539 56.816H95.9619L99.9779 68H97.6099L96.8739 65.872ZM96.2659 64.08L94.6499 59.408L93.0339 64.08H96.2659ZM113.655 56.832V68H111.415V60.736L108.423 68H106.727L103.719 60.736V68H101.479V56.832H104.023L107.575 65.136L111.127 56.832H113.655ZM118.11 58.64V61.44H121.87V63.216H118.11V66.176H122.35V68H115.87V56.816H122.35V58.64H118.11ZM128.241 68.112C127.463 68.112 126.759 67.9787 126.129 67.712C125.511 67.4453 125.02 67.0613 124.657 66.56C124.295 66.0587 124.108 65.4667 124.097 64.784H126.497C126.529 65.2427 126.689 65.6053 126.977 65.872C127.276 66.1387 127.681 66.272 128.193 66.272C128.716 66.272 129.127 66.1493 129.425 65.904C129.724 65.648 129.873 65.3173 129.873 64.912C129.873 64.5813 129.772 64.3093 129.569 64.096C129.367 63.8827 129.111 63.7173 128.801 63.6C128.503 63.472 128.087 63.3333 127.553 63.184C126.828 62.9707 126.236 62.7627 125.777 62.56C125.329 62.3467 124.94 62.032 124.609 61.616C124.289 61.1893 124.129 60.624 124.129 59.92C124.129 59.2587 124.295 58.6827 124.625 58.192C124.956 57.7013 125.42 57.328 126.017 57.072C126.615 56.8053 127.297 56.672 128.065 56.672C129.217 56.672 130.151 56.9547 130.865 57.52C131.591 58.0747 131.991 58.8533 132.065 59.856H129.601C129.58 59.472 129.415 59.1573 129.105 58.912C128.807 58.656 128.407 58.528 127.905 58.528C127.468 58.528 127.116 58.64 126.849 58.864C126.593 59.088 126.465 59.4133 126.465 59.84C126.465 60.1387 126.561 60.3893 126.753 60.592C126.956 60.784 127.201 60.944 127.489 61.072C127.788 61.1893 128.204 61.328 128.737 61.488C129.463 61.7013 130.055 61.9147 130.513 62.128C130.972 62.3413 131.367 62.6613 131.697 63.088C132.028 63.5147 132.193 64.0747 132.193 64.768C132.193 65.3653 132.039 65.92 131.729 66.432C131.42 66.944 130.967 67.3547 130.369 67.664C129.772 67.9627 129.063 68.112 128.241 68.112Z" fill="#1AB8F2"/>
</svg>
