<svg width="32" height="32" viewBox="0 0 47 47" fill="none" xmlns="http://www.w3.org/2000/svg">
<path d="M18.9497 29.4908C15.8856 29.4908 13.2886 28.4264 11.1585 26.2977C9.02972 24.1702 7.96533 21.5737 7.96533 18.5083C7.96533 15.4429 9.02972 12.8458 11.1585 10.7171C13.2873 8.58829 15.8844 7.52454 18.9497 7.52582C22.0151 7.5271 24.6116 8.59149 26.7391 10.719C28.8666 12.8465 29.931 15.4429 29.9322 18.5083C29.9322 19.8398 29.6965 21.1284 29.225 22.3742C28.7535 23.6201 28.1338 24.6857 27.3658 25.5712L38.6914 36.893C38.8703 37.0719 38.9661 37.2923 38.9789 37.5542C38.9904 37.8136 38.8946 38.0455 38.6914 38.25C38.487 38.4544 38.2608 38.5567 38.0129 38.5567C37.765 38.5567 37.5389 38.4544 37.3344 38.25L26.0107 26.9263C25.0524 27.7428 23.9503 28.3747 22.7045 28.8219C21.4587 29.2691 20.2064 29.4927 18.9478 29.4927M18.9478 27.5761C21.4906 27.5761 23.6379 26.7008 25.3897 24.9502C27.1403 23.1997 28.0156 21.0524 28.0156 18.5083C28.0156 15.9643 27.1409 13.8176 25.3917 12.0683C23.6424 10.319 21.4957 9.44376 18.9517 9.44249C16.4076 9.44249 14.2603 10.3178 12.5097 12.0683C10.7592 13.8189 9.88328 15.9655 9.882 18.5083C9.88072 21.0511 10.756 23.1978 12.5078 24.9483C14.2597 26.6989 16.4063 27.5742 18.9478 27.5742" fill="#4A4A4A"/>
</svg>
