<svg width="25" height="25" viewBox="0 0 25 25" fill="none" xmlns="http://www.w3.org/2000/svg">
<g clip-path="url(#clip0_253_903)">
<path d="M13.6589 1.74445L16.3658 7.22931C16.554 7.61079 16.918 7.87512 17.339 7.93619L23.3921 8.81579C24.4524 8.96998 24.8754 10.2726 24.1084 11.02L19.7285 15.2894C19.4241 15.5863 19.2849 16.0143 19.357 16.4333L20.3908 22.4619C20.572 23.5177 19.4636 24.3227 18.5155 23.8246L13.1017 20.9785C12.7252 20.7807 12.2752 20.7807 11.8987 20.9785L6.48492 23.8246C5.53674 24.3232 4.42835 23.5177 4.60958 22.4619L5.64337 16.4333C5.71546 16.0143 5.57628 15.5863 5.2719 15.2894L0.891929 11.02C0.12497 10.2721 0.547999 8.96948 1.60832 8.81579L7.66139 7.93619C8.08242 7.87512 8.44637 7.61079 8.63461 7.22931L11.3415 1.74445C11.8151 0.783751 13.1848 0.783751 13.6589 1.74445Z" fill="#0B485E"/>
</g>
<defs>
<clipPath id="clip0_253_903">
<rect width="24" height="24" fill="white" transform="translate(0.5 0.5)"/>
</clipPath>
</defs>
</svg>
